<svg width="22" height="12" viewBox="0 0 22 12" fill="none" xmlns="http://www.w3.org/2000/svg">
<path fill-rule="evenodd" clip-rule="evenodd" d="M3.65903 8.76731H5.12951L3.44896 6.18919L6.73368 5.51731C6.97431 5.46653 7.16528 5.27513 7.21493 5.02513L7.87187 1.66575L10.6601 3.5681C10.8663 3.70872 11.1337 3.70872 11.3399 3.5681L14.1281 1.66575L14.7851 5.02513C14.8309 5.27122 15.0219 5.46653 15.2663 5.51731L18.551 6.18919L16.8705 8.76731H18.341L20.0788 6.10716C20.1934 5.93528 20.2125 5.71263 20.1361 5.52122C20.0597 5.32981 19.8917 5.18919 19.6892 5.14622L15.908 4.37278L15.1517 0.505595C15.1135 0.30247 14.976 0.130595 14.7851 0.0485641C14.5941 -0.0334671 14.3802 -0.0100296 14.2122 0.107158L11.0038 2.29466L7.79549 0.107158C7.62743 -0.00612336 7.40972 -0.0295609 7.22257 0.0485641C7.03542 0.126689 6.89792 0.298564 6.8559 0.505595L6.09965 4.37278L2.3184 5.14622C2.11979 5.18528 1.95174 5.32591 1.87153 5.52122C1.79132 5.71653 1.81424 5.93528 1.92882 6.10716L3.65903 8.76731ZM10.9924 5.01731C8.84201 5.01731 7.07743 6.65403 6.77569 8.76731H7.99792C8.28056 7.34153 9.51424 6.26731 10.9924 6.26731C12.4705 6.26731 13.7003 7.34153 13.9868 8.76731H15.209C14.9111 6.65403 13.1427 5.01731 10.9924 5.01731ZM0.305556 10.0173H21.6944C21.8625 10.0173 22 10.1579 22 10.3298V10.9548C22 11.1267 21.8625 11.2673 21.6944 11.2673H0.305556C0.1375 11.2673 0 11.1267 0 10.9548V10.3298C0 10.1579 0.1375 10.0173 0.305556 10.0173Z" fill="black"/>
</svg>
