<svg width="15" height="20" viewBox="0 0 15 20" fill="none" xmlns="http://www.w3.org/2000/svg">
<path fill-rule="evenodd" clip-rule="evenodd" d="M7.67285 0C4.69208 0 2.5722 1.23434 0.948602 3.64461C0.393431 4.46879 0.579165 5.585 1.37144 6.18578L3.01332 7.43078C3.82223 8.04418 4.97988 7.90598 5.61786 7.09836C6.45661 6.0366 6.72605 5.84992 7.41981 5.84992C7.81893 5.84992 8.40762 6.12332 8.40762 6.5625C8.40762 6.89909 7.92885 7.10112 7.29196 7.36986C6.02699 7.90365 4.13827 8.70063 4.13827 11.3379V11.875C4.13827 12.5003 4.44619 13.0546 4.91804 13.3955C4.11034 14.0839 3.59712 15.108 3.59712 16.25C3.59712 18.3178 5.27928 20 7.34696 20C9.41465 20 11.0968 18.3178 11.0968 16.25C11.0968 15.108 10.5836 14.0839 9.77588 13.3955C10.2477 13.0546 10.5557 12.5003 10.5557 11.875V11.6912C10.7295 11.5612 10.9676 11.4233 11.242 11.2644C12.5331 10.5167 14.6292 9.30278 14.6292 6.245C14.6292 2.68723 11.1105 0 7.67285 0ZM7.34696 18.75C5.9685 18.75 4.84707 17.6285 4.84707 16.25C4.84707 14.8715 5.9685 13.75 7.34696 13.75C8.72542 13.75 9.84686 14.8715 9.84686 16.25C9.84686 17.6285 8.72542 18.75 7.34696 18.75ZM9.30571 11.875V11.4685C9.30571 10.9416 9.88796 10.6055 10.6122 10.1876C11.8036 9.50002 13.3792 8.59072 13.3792 6.245C13.3792 3.40461 10.433 1.25 7.67285 1.25C5.0173 1.25 3.31885 2.36324 1.98524 4.34297C1.80021 4.6177 1.8627 4.98957 2.12664 5.18973L3.76852 6.43473C4.04003 6.64062 4.42599 6.59066 4.63704 6.32348C5.49931 5.23195 6.10022 4.59992 7.41981 4.59992C8.42016 4.59992 9.65757 5.3125 9.65757 6.5625C9.65757 7.73874 8.73921 8.12194 7.75436 8.5329C6.61573 9.00802 5.38822 9.52023 5.38822 11.3379V11.875C5.38822 12.2202 5.66805 12.5 6.01319 12.5H8.68073C9.02591 12.5 9.30571 12.2202 9.30571 11.875Z" fill="black"/>
</svg>
