<svg width="20" height="20" viewBox="0 0 20 20" fill="none" xmlns="http://www.w3.org/2000/svg">
<path fill-rule="evenodd" clip-rule="evenodd" d="M20 9.9917C20 9.78466 19.8945 9.58934 19.7227 9.47214L16.4844 7.30407L17.2422 3.47966C17.2812 3.27653 17.2188 3.06167 17.0703 2.91713C16.9219 2.76869 16.7148 2.70228 16.5078 2.74525L12.6875 3.5031L10.5195 0.260755C10.2852 -0.0869183 9.71484 -0.0869183 9.48047 0.260755L7.3125 3.5031L3.49219 2.74134C3.28516 2.69837 3.07812 2.76478 2.92969 2.91323C2.78125 3.06167 2.71875 3.27262 2.75781 3.47576L3.51562 7.30407L0.277344 9.47214C0.105469 9.58934 0 9.78466 0 9.9917C0 10.1987 0.105469 10.3941 0.277344 10.5113L3.51562 12.6793L2.75781 16.5037C2.71875 16.7069 2.78125 16.9217 2.92969 17.0663C3.07812 17.2147 3.28516 17.2811 3.49219 17.2381L7.3125 16.4803L9.48047 19.7226C9.59766 19.8984 9.79297 20 10 20C10.207 20 10.4023 19.8945 10.5195 19.7226L12.6875 16.4803L16.5078 17.2381C16.7188 17.285 16.9258 17.2147 17.0703 17.0663C17.2188 16.9178 17.2812 16.7069 17.2422 16.5037L16.4844 12.6793L19.7227 10.5113C19.8945 10.3941 20 10.1987 20 9.9917ZM5.625 9.9917C5.625 7.57752 7.58594 5.61258 10 5.61258C12.4141 5.61258 14.375 7.57752 14.375 9.9917C14.375 12.4059 12.4141 14.3708 10 14.3708C7.58594 14.3708 5.625 12.4059 5.625 9.9917ZM6.875 9.9917C6.875 11.7183 8.27734 13.1208 10 13.1208C11.7227 13.1208 13.125 11.7183 13.125 9.9917C13.125 8.26505 11.7227 6.86264 10 6.86264C8.27734 6.86264 6.875 8.26505 6.875 9.9917ZM15.1758 12.5114C15.1289 12.2652 15.2305 12.0113 15.4414 11.8707L18.25 9.99561L15.4414 8.1127C15.2305 7.97207 15.1289 7.71815 15.1758 7.47204L15.832 4.15548L12.5195 4.81176C12.2656 4.86254 12.0195 4.75707 11.8789 4.54612L10 1.73348L8.12109 4.54612C7.98047 4.75707 7.73438 4.86254 7.48047 4.81176L4.16797 4.15548L4.82422 7.47204C4.87109 7.71815 4.76953 7.97207 4.55859 8.1127L1.75 9.99561L4.55859 11.8746C4.76953 12.0152 4.87109 12.2692 4.82422 12.5153L4.16797 15.8318L7.48047 15.1755C7.51953 15.1677 7.5625 15.1638 7.60156 15.1638C7.80859 15.1638 8.00391 15.2654 8.12109 15.4412L10 18.2499L11.8789 15.4373C12.0195 15.2263 12.2617 15.1169 12.5195 15.1716L15.832 15.8279L15.1758 12.5114Z" fill="black"/>
</svg>
