<svg width="18" height="20" viewBox="0 0 18 20" fill="none" xmlns="http://www.w3.org/2000/svg">
<path fill-rule="evenodd" clip-rule="evenodd" d="M8.82221 8.02418C8.82221 12.0221 12.4466 15.0316 16.3721 14.2819C17.5066 14.0652 18.3072 15.3905 17.5731 16.2975C15.7123 18.5967 12.902 20 9.82744 20C4.31756 20 -0.144287 15.5209 -0.144287 10C-0.144287 4.47445 4.32219 0 9.82744 0C10.4383 9.80947e-05 11.0478 0.0560195 11.6485 0.16707C12.7917 0.378828 13.0448 1.90848 12.0386 2.4827C10.0516 3.61668 8.82221 5.72367 8.82221 8.02418ZM1.10218 10C1.10218 14.8325 5.0086 18.75 9.82744 18.75C12.5638 18.75 15.0055 17.4864 16.6052 15.5098C11.9233 16.404 7.57574 12.8135 7.57574 8.02418C7.57574 5.18414 9.12506 2.70723 11.4221 1.39629C10.9051 1.30055 10.3721 1.25 9.82744 1.25C5.0086 1.25 1.10218 5.1675 1.10218 10Z" fill="black"/>
</svg>
