<svg width="20" height="20" viewBox="0 0 20 20" fill="none" xmlns="http://www.w3.org/2000/svg">
<path fill-rule="evenodd" clip-rule="evenodd" d="M13.4511 2.91668C12.4039 2.91668 11.4557 2.61292 10.4575 2.29314C9.34813 1.93772 8.17691 1.5625 6.73913 1.5625C5.62636 1.5625 4.64245 1.77039 3.73269 2.12691C3.88878 0.965349 2.96124 -0.0440262 1.79964 0.0014816C0.841083 0.0390207 0.0559649 0.810544 0.00295709 1.7684C-0.0447773 2.63047 0.49034 3.37429 1.24999 3.64289V19.5312C1.24999 19.7901 1.45987 20 1.71874 20H2.03124C2.29011 20 2.49999 19.7901 2.49999 19.5312V14.7812C3.72745 14.2132 5.31507 13.6459 7.7989 13.6459C8.84614 13.6459 9.79428 13.9496 10.7925 14.2694C11.9019 14.6248 13.0731 15 14.5109 15C16.5152 15 18.102 14.3267 19.5893 13.3222C19.8467 13.1484 20 12.857 20 12.5464V2.32504C20 1.63953 19.2888 1.18629 18.6671 1.47504C17.2304 2.14238 15.2975 2.91668 13.4511 2.91668ZM1.87499 1.09375C2.30577 1.09375 2.65624 1.44422 2.65624 1.875C2.65624 2.30578 2.30577 2.65625 1.87499 2.65625C1.44421 2.65625 1.09374 2.30578 1.09374 1.875C1.09374 1.44422 1.44421 1.09375 1.87499 1.09375ZM14.5109 13.75C16.2286 13.75 17.847 13.048 18.75 12.3958V2.8125C17.4439 3.43179 15.2448 4.16668 13.4511 4.16668C12.2095 4.16668 11.1529 3.82823 10.0961 3.48973C9.03901 3.15114 7.98179 2.8125 6.73913 2.8125C5.0214 2.8125 3.403 3.51449 2.49999 4.16668V13.4114C3.80362 12.7937 6.0014 12.3958 7.7989 12.3958C9.0405 12.3958 10.0971 12.7343 11.1539 13.0728C12.211 13.4114 13.2682 13.75 14.5109 13.75Z" fill="black"/>
</svg>
